<mxfile host="app.diagrams.net" modified="2024-01-24T12:52:22.856Z" agent="Mozilla/5.0 (Macintosh; Intel Mac OS X 10_15_7) AppleWebKit/537.36 (KHTML, like Gecko) Chrome/119.0.0.0 Safari/537.36" etag="06PoVh7it1NAVFxGX7dK" version="23.0.1" type="device">
  <diagram id="R2lEEEUBdFMjLlhIrx00" name="Page-1">
    <mxGraphModel dx="909" dy="554" grid="1" gridSize="10" guides="1" tooltips="1" connect="1" arrows="1" fold="1" page="1" pageScale="1" pageWidth="850" pageHeight="1100" math="0" shadow="0" extFonts="Permanent Marker^https://fonts.googleapis.com/css?family=Permanent+Marker">
      <root>
        <mxCell id="0" />
        <mxCell id="1" parent="0" />
        <mxCell id="ii9ngVZduZjd3nHxb45l-3" value="PRODUCTO" style="rounded=1;arcSize=10;whiteSpace=wrap;html=1;align=center;labelBackgroundColor=none;fillColor=#FAE5C7;strokeColor=#0F8B8D;fontColor=#143642;" vertex="1" parent="1">
          <mxGeometry x="100" y="320" width="100" height="40" as="geometry" />
        </mxCell>
        <mxCell id="ii9ngVZduZjd3nHxb45l-4" value="CLIENTE" style="rounded=1;arcSize=10;whiteSpace=wrap;html=1;align=center;labelBackgroundColor=none;fillColor=#FAE5C7;strokeColor=#0F8B8D;fontColor=#143642;" vertex="1" parent="1">
          <mxGeometry x="650" y="320" width="100" height="40" as="geometry" />
        </mxCell>
        <mxCell id="ii9ngVZduZjd3nHxb45l-12" style="edgeStyle=orthogonalEdgeStyle;rounded=0;orthogonalLoop=1;jettySize=auto;html=1;exitX=1;exitY=0.5;exitDx=0;exitDy=0;entryX=0;entryY=0.5;entryDx=0;entryDy=0;endArrow=none;endFill=0;labelBackgroundColor=none;strokeColor=#A8201A;fontColor=default;" edge="1" parent="1" source="ii9ngVZduZjd3nHxb45l-5" target="ii9ngVZduZjd3nHxb45l-11">
          <mxGeometry relative="1" as="geometry" />
        </mxCell>
        <mxCell id="ii9ngVZduZjd3nHxb45l-16" value="n" style="edgeLabel;html=1;align=center;verticalAlign=middle;resizable=0;points=[];labelBackgroundColor=none;fontColor=#143642;" vertex="1" connectable="0" parent="ii9ngVZduZjd3nHxb45l-12">
          <mxGeometry x="-0.5254" relative="1" as="geometry">
            <mxPoint y="10" as="offset" />
          </mxGeometry>
        </mxCell>
        <mxCell id="ii9ngVZduZjd3nHxb45l-5" value="VENTA" style="rounded=1;arcSize=10;whiteSpace=wrap;html=1;align=center;labelBackgroundColor=none;fillColor=#FAE5C7;strokeColor=#0F8B8D;fontColor=#143642;" vertex="1" parent="1">
          <mxGeometry x="390" y="320" width="100" height="40" as="geometry" />
        </mxCell>
        <mxCell id="ii9ngVZduZjd3nHxb45l-7" style="edgeStyle=orthogonalEdgeStyle;rounded=0;orthogonalLoop=1;jettySize=auto;html=1;exitX=1;exitY=0.5;exitDx=0;exitDy=0;endArrow=none;endFill=0;labelBackgroundColor=none;strokeColor=#A8201A;fontColor=default;" edge="1" parent="1" source="ii9ngVZduZjd3nHxb45l-6" target="ii9ngVZduZjd3nHxb45l-5">
          <mxGeometry relative="1" as="geometry" />
        </mxCell>
        <mxCell id="ii9ngVZduZjd3nHxb45l-15" value="n" style="edgeLabel;html=1;align=center;verticalAlign=middle;resizable=0;points=[];labelBackgroundColor=none;fontColor=#143642;" vertex="1" connectable="0" parent="ii9ngVZduZjd3nHxb45l-7">
          <mxGeometry x="0.5234" relative="1" as="geometry">
            <mxPoint y="10" as="offset" />
          </mxGeometry>
        </mxCell>
        <mxCell id="ii9ngVZduZjd3nHxb45l-8" style="edgeStyle=orthogonalEdgeStyle;rounded=0;orthogonalLoop=1;jettySize=auto;html=1;exitX=0;exitY=0.5;exitDx=0;exitDy=0;entryX=1;entryY=0.5;entryDx=0;entryDy=0;endArrow=none;endFill=0;labelBackgroundColor=none;strokeColor=#A8201A;fontColor=default;" edge="1" parent="1" source="ii9ngVZduZjd3nHxb45l-6" target="ii9ngVZduZjd3nHxb45l-3">
          <mxGeometry relative="1" as="geometry" />
        </mxCell>
        <mxCell id="ii9ngVZduZjd3nHxb45l-14" value="n" style="edgeLabel;html=1;align=center;verticalAlign=middle;resizable=0;points=[];labelBackgroundColor=none;fontColor=#143642;" vertex="1" connectable="0" parent="ii9ngVZduZjd3nHxb45l-8">
          <mxGeometry x="0.52" relative="1" as="geometry">
            <mxPoint y="10" as="offset" />
          </mxGeometry>
        </mxCell>
        <mxCell id="ii9ngVZduZjd3nHxb45l-6" value="Tiene" style="shape=rhombus;perimeter=rhombusPerimeter;whiteSpace=wrap;html=1;align=center;labelBackgroundColor=none;fillColor=#FAE5C7;strokeColor=#0F8B8D;fontColor=#143642;" vertex="1" parent="1">
          <mxGeometry x="250" y="320" width="90" height="40" as="geometry" />
        </mxCell>
        <mxCell id="ii9ngVZduZjd3nHxb45l-13" style="edgeStyle=orthogonalEdgeStyle;rounded=0;orthogonalLoop=1;jettySize=auto;html=1;exitX=1;exitY=0.5;exitDx=0;exitDy=0;entryX=0;entryY=0.5;entryDx=0;entryDy=0;endArrow=none;endFill=0;labelBackgroundColor=none;strokeColor=#A8201A;fontColor=default;" edge="1" parent="1" source="ii9ngVZduZjd3nHxb45l-11" target="ii9ngVZduZjd3nHxb45l-4">
          <mxGeometry relative="1" as="geometry">
            <Array as="points">
              <mxPoint x="630" y="340" />
              <mxPoint x="630" y="340" />
            </Array>
          </mxGeometry>
        </mxCell>
        <mxCell id="ii9ngVZduZjd3nHxb45l-17" value="1" style="edgeLabel;html=1;align=center;verticalAlign=middle;resizable=0;points=[];labelBackgroundColor=none;fontColor=#143642;" vertex="1" connectable="0" parent="ii9ngVZduZjd3nHxb45l-13">
          <mxGeometry x="0.4685" relative="1" as="geometry">
            <mxPoint y="10" as="offset" />
          </mxGeometry>
        </mxCell>
        <mxCell id="ii9ngVZduZjd3nHxb45l-11" value="Realiza" style="shape=rhombus;perimeter=rhombusPerimeter;whiteSpace=wrap;html=1;align=center;labelBackgroundColor=none;fillColor=#FAE5C7;strokeColor=#0F8B8D;fontColor=#143642;" vertex="1" parent="1">
          <mxGeometry x="530" y="320" width="90" height="40" as="geometry" />
        </mxCell>
        <mxCell id="ii9ngVZduZjd3nHxb45l-25" style="edgeStyle=orthogonalEdgeStyle;rounded=0;orthogonalLoop=1;jettySize=auto;html=1;exitX=0.5;exitY=0;exitDx=0;exitDy=0;endArrow=none;endFill=0;labelBackgroundColor=none;strokeColor=#A8201A;fontColor=default;" edge="1" parent="1" source="ii9ngVZduZjd3nHxb45l-18">
          <mxGeometry relative="1" as="geometry">
            <mxPoint x="149.9999999999999" y="360" as="targetPoint" />
            <Array as="points">
              <mxPoint x="250" y="400" />
              <mxPoint x="250" y="380" />
              <mxPoint x="151" y="380" />
              <mxPoint x="151" y="360" />
            </Array>
          </mxGeometry>
        </mxCell>
        <mxCell id="ii9ngVZduZjd3nHxb45l-18" value="Precio" style="ellipse;whiteSpace=wrap;html=1;align=center;labelBackgroundColor=none;fillColor=#FAE5C7;strokeColor=#0F8B8D;fontColor=#143642;" vertex="1" parent="1">
          <mxGeometry x="230" y="400" width="50" height="20" as="geometry" />
        </mxCell>
        <mxCell id="ii9ngVZduZjd3nHxb45l-24" style="edgeStyle=orthogonalEdgeStyle;rounded=0;orthogonalLoop=1;jettySize=auto;html=1;exitX=0.5;exitY=0;exitDx=0;exitDy=0;endArrow=none;endFill=0;labelBackgroundColor=none;strokeColor=#A8201A;fontColor=default;" edge="1" parent="1" source="ii9ngVZduZjd3nHxb45l-19">
          <mxGeometry relative="1" as="geometry">
            <mxPoint x="149.9999999999999" y="360" as="targetPoint" />
          </mxGeometry>
        </mxCell>
        <mxCell id="ii9ngVZduZjd3nHxb45l-19" value="Descripción" style="ellipse;whiteSpace=wrap;html=1;align=center;labelBackgroundColor=none;fillColor=#FAE5C7;strokeColor=#0F8B8D;fontColor=#143642;" vertex="1" parent="1">
          <mxGeometry x="155" y="400" width="65" height="20" as="geometry" />
        </mxCell>
        <mxCell id="ii9ngVZduZjd3nHxb45l-22" style="edgeStyle=orthogonalEdgeStyle;rounded=0;orthogonalLoop=1;jettySize=auto;html=1;exitX=0.5;exitY=0;exitDx=0;exitDy=0;entryX=0.5;entryY=1;entryDx=0;entryDy=0;endArrow=none;endFill=0;labelBackgroundColor=none;strokeColor=#A8201A;fontColor=default;" edge="1" parent="1" source="ii9ngVZduZjd3nHxb45l-20" target="ii9ngVZduZjd3nHxb45l-3">
          <mxGeometry relative="1" as="geometry" />
        </mxCell>
        <mxCell id="ii9ngVZduZjd3nHxb45l-20" value="Código" style="ellipse;whiteSpace=wrap;html=1;align=center;labelBackgroundColor=none;fillColor=#FAE5C7;strokeColor=#0F8B8D;fontColor=#143642;" vertex="1" parent="1">
          <mxGeometry x="35" y="400" width="50" height="20" as="geometry" />
        </mxCell>
        <mxCell id="ii9ngVZduZjd3nHxb45l-23" style="edgeStyle=orthogonalEdgeStyle;rounded=0;orthogonalLoop=1;jettySize=auto;html=1;exitX=0.5;exitY=0;exitDx=0;exitDy=0;endArrow=none;endFill=0;labelBackgroundColor=none;strokeColor=#A8201A;fontColor=default;" edge="1" parent="1" source="ii9ngVZduZjd3nHxb45l-21">
          <mxGeometry relative="1" as="geometry">
            <mxPoint x="149.9999999999999" y="360" as="targetPoint" />
          </mxGeometry>
        </mxCell>
        <mxCell id="ii9ngVZduZjd3nHxb45l-21" value="Nombre" style="ellipse;whiteSpace=wrap;html=1;align=center;labelBackgroundColor=none;fillColor=#FAE5C7;strokeColor=#0F8B8D;fontColor=#143642;" vertex="1" parent="1">
          <mxGeometry x="95" y="400" width="50" height="20" as="geometry" />
        </mxCell>
        <mxCell id="ii9ngVZduZjd3nHxb45l-29" style="edgeStyle=orthogonalEdgeStyle;rounded=0;orthogonalLoop=1;jettySize=auto;html=1;exitX=0.5;exitY=0;exitDx=0;exitDy=0;endArrow=none;endFill=0;labelBackgroundColor=none;strokeColor=#A8201A;fontColor=default;" edge="1" parent="1" source="ii9ngVZduZjd3nHxb45l-27" target="ii9ngVZduZjd3nHxb45l-5">
          <mxGeometry relative="1" as="geometry" />
        </mxCell>
        <mxCell id="ii9ngVZduZjd3nHxb45l-27" value="Número" style="ellipse;whiteSpace=wrap;html=1;align=center;labelBackgroundColor=none;fillColor=#FAE5C7;strokeColor=#0F8B8D;fontColor=#143642;" vertex="1" parent="1">
          <mxGeometry x="390" y="400" width="50" height="20" as="geometry" />
        </mxCell>
        <mxCell id="ii9ngVZduZjd3nHxb45l-30" style="edgeStyle=orthogonalEdgeStyle;rounded=0;orthogonalLoop=1;jettySize=auto;html=1;exitX=0.5;exitY=0;exitDx=0;exitDy=0;endArrow=none;endFill=0;labelBackgroundColor=none;strokeColor=#A8201A;fontColor=default;" edge="1" parent="1" source="ii9ngVZduZjd3nHxb45l-28">
          <mxGeometry relative="1" as="geometry">
            <mxPoint x="440" y="360" as="targetPoint" />
          </mxGeometry>
        </mxCell>
        <mxCell id="ii9ngVZduZjd3nHxb45l-28" value="Fecha" style="ellipse;whiteSpace=wrap;html=1;align=center;labelBackgroundColor=none;fillColor=#FAE5C7;strokeColor=#0F8B8D;fontColor=#143642;" vertex="1" parent="1">
          <mxGeometry x="450" y="400" width="50" height="20" as="geometry" />
        </mxCell>
        <mxCell id="ii9ngVZduZjd3nHxb45l-38" style="edgeStyle=orthogonalEdgeStyle;rounded=0;orthogonalLoop=1;jettySize=auto;html=1;exitX=0.5;exitY=0;exitDx=0;exitDy=0;labelBackgroundColor=none;strokeColor=#A8201A;fontColor=default;" edge="1" parent="1" source="ii9ngVZduZjd3nHxb45l-31">
          <mxGeometry relative="1" as="geometry">
            <mxPoint x="700" y="360" as="targetPoint" />
          </mxGeometry>
        </mxCell>
        <mxCell id="ii9ngVZduZjd3nHxb45l-31" value="Telefono" style="ellipse;whiteSpace=wrap;html=1;align=center;labelBackgroundColor=none;fillColor=#FAE5C7;strokeColor=#0F8B8D;fontColor=#143642;" vertex="1" parent="1">
          <mxGeometry x="772.5" y="410" width="50" height="20" as="geometry" />
        </mxCell>
        <mxCell id="ii9ngVZduZjd3nHxb45l-37" style="edgeStyle=orthogonalEdgeStyle;rounded=0;orthogonalLoop=1;jettySize=auto;html=1;exitX=0.5;exitY=0;exitDx=0;exitDy=0;labelBackgroundColor=none;strokeColor=#A8201A;fontColor=default;" edge="1" parent="1" source="ii9ngVZduZjd3nHxb45l-32">
          <mxGeometry relative="1" as="geometry">
            <mxPoint x="700" y="360" as="targetPoint" />
          </mxGeometry>
        </mxCell>
        <mxCell id="ii9ngVZduZjd3nHxb45l-32" value="Dni" style="ellipse;whiteSpace=wrap;html=1;align=center;labelBackgroundColor=none;fillColor=#FAE5C7;strokeColor=#0F8B8D;fontColor=#143642;" vertex="1" parent="1">
          <mxGeometry x="700" y="410" width="50" height="20" as="geometry" />
        </mxCell>
        <mxCell id="ii9ngVZduZjd3nHxb45l-35" style="edgeStyle=orthogonalEdgeStyle;rounded=0;orthogonalLoop=1;jettySize=auto;html=1;exitX=0.5;exitY=0;exitDx=0;exitDy=0;entryX=0.5;entryY=1;entryDx=0;entryDy=0;labelBackgroundColor=none;strokeColor=#A8201A;fontColor=default;" edge="1" parent="1" source="ii9ngVZduZjd3nHxb45l-33" target="ii9ngVZduZjd3nHxb45l-4">
          <mxGeometry relative="1" as="geometry" />
        </mxCell>
        <mxCell id="ii9ngVZduZjd3nHxb45l-33" value="Nombre" style="ellipse;whiteSpace=wrap;html=1;align=center;labelBackgroundColor=none;fillColor=#FAE5C7;strokeColor=#0F8B8D;fontColor=#143642;" vertex="1" parent="1">
          <mxGeometry x="577.5" y="410" width="50" height="20" as="geometry" />
        </mxCell>
        <mxCell id="ii9ngVZduZjd3nHxb45l-36" style="edgeStyle=orthogonalEdgeStyle;rounded=0;orthogonalLoop=1;jettySize=auto;html=1;exitX=0.5;exitY=0;exitDx=0;exitDy=0;labelBackgroundColor=none;strokeColor=#A8201A;fontColor=default;" edge="1" parent="1" source="ii9ngVZduZjd3nHxb45l-34">
          <mxGeometry relative="1" as="geometry">
            <mxPoint x="700" y="360" as="targetPoint" />
          </mxGeometry>
        </mxCell>
        <mxCell id="ii9ngVZduZjd3nHxb45l-34" value="Apellido" style="ellipse;whiteSpace=wrap;html=1;align=center;labelBackgroundColor=none;fillColor=#FAE5C7;strokeColor=#0F8B8D;fontColor=#143642;" vertex="1" parent="1">
          <mxGeometry x="637.5" y="410" width="50" height="20" as="geometry" />
        </mxCell>
        <mxCell id="ii9ngVZduZjd3nHxb45l-43" style="edgeStyle=orthogonalEdgeStyle;rounded=0;orthogonalLoop=1;jettySize=auto;html=1;exitX=0.5;exitY=1;exitDx=0;exitDy=0;labelBackgroundColor=none;strokeColor=#A8201A;fontColor=default;" edge="1" parent="1" source="ii9ngVZduZjd3nHxb45l-40" target="ii9ngVZduZjd3nHxb45l-6">
          <mxGeometry relative="1" as="geometry" />
        </mxCell>
        <mxCell id="ii9ngVZduZjd3nHxb45l-40" value="Código" style="ellipse;whiteSpace=wrap;html=1;align=center;labelBackgroundColor=none;fillColor=#FAE5C7;strokeColor=#0F8B8D;fontColor=#143642;" vertex="1" parent="1">
          <mxGeometry x="210" y="260" width="50" height="20" as="geometry" />
        </mxCell>
        <mxCell id="ii9ngVZduZjd3nHxb45l-44" style="edgeStyle=orthogonalEdgeStyle;rounded=0;orthogonalLoop=1;jettySize=auto;html=1;exitX=0.5;exitY=1;exitDx=0;exitDy=0;entryX=0.5;entryY=0;entryDx=0;entryDy=0;labelBackgroundColor=none;strokeColor=#A8201A;fontColor=default;" edge="1" parent="1" source="ii9ngVZduZjd3nHxb45l-41" target="ii9ngVZduZjd3nHxb45l-6">
          <mxGeometry relative="1" as="geometry" />
        </mxCell>
        <mxCell id="ii9ngVZduZjd3nHxb45l-41" value="Número" style="ellipse;whiteSpace=wrap;html=1;align=center;labelBackgroundColor=none;fillColor=#FAE5C7;strokeColor=#0F8B8D;fontColor=#143642;" vertex="1" parent="1">
          <mxGeometry x="270" y="260" width="50" height="20" as="geometry" />
        </mxCell>
        <mxCell id="ii9ngVZduZjd3nHxb45l-45" style="edgeStyle=orthogonalEdgeStyle;rounded=0;orthogonalLoop=1;jettySize=auto;html=1;exitX=0.5;exitY=1;exitDx=0;exitDy=0;entryX=0.5;entryY=0;entryDx=0;entryDy=0;labelBackgroundColor=none;strokeColor=#A8201A;fontColor=default;" edge="1" parent="1" source="ii9ngVZduZjd3nHxb45l-42" target="ii9ngVZduZjd3nHxb45l-6">
          <mxGeometry relative="1" as="geometry" />
        </mxCell>
        <mxCell id="ii9ngVZduZjd3nHxb45l-42" value="Cantidad" style="ellipse;whiteSpace=wrap;html=1;align=center;labelBackgroundColor=none;fillColor=#FAE5C7;strokeColor=#0F8B8D;fontColor=#143642;" vertex="1" parent="1">
          <mxGeometry x="330" y="260" width="50" height="20" as="geometry" />
        </mxCell>
      </root>
    </mxGraphModel>
  </diagram>
</mxfile>
